<?xml version="1.0" encoding="UTF-8"?>
<svg id="Layer_1" xmlns="http://www.w3.org/2000/svg" version="1.1" viewBox="0 0 17 17">
  <!-- Generator: Adobe Illustrator 30.2.1, SVG Export Plug-In . SVG Version: 2.1.1 Build 1)  -->
  <defs>
    <style>
      .st0 {
        fill: #fff;
      }

      .st1 {
        fill: #474747;
      }

      .st2 {
        fill: #c6c6c6;
      }
    </style>
  </defs>
  <rect class="st1" width="17" height="17"/>
  <path class="st2" d="M3.89,6.65c-.54.17-1.04.46-1.44.86-.65.65-1.02,1.53-1.02,2.46,0,1.92,1.56,3.47,3.47,3.47h6.98c1.93,0,3.48-1.6,3.48-3.52s-1.56-3.52-3.48-3.52h-1.08c-.25-1.69-1.7-2.91-3.45-2.91s-3.28,1.41-3.46,3.17"/>
  <path class="st0" d="M4.2,9.32c-.34.1-.64.29-.89.53-.39.39-.63.92-.63,1.52,0,1.19.96,2.14,2.15,2.14h4.31c1.19,0,2.15-.99,2.15-2.18s-.96-2.18-2.15-2.18h-.67c-.16-1.05-1.05-1.8-2.13-1.8s-2.03.88-2.14,1.96"/>
</svg>