<?xml version="1.0" encoding="UTF-8"?>
<svg id="Layer_1" xmlns="http://www.w3.org/2000/svg" version="1.1" viewBox="0 0 17 17">
  <!-- Generator: Adobe Illustrator 30.2.1, SVG Export Plug-In . SVG Version: 2.1.1 Build 1)  -->
  <defs>
    <style>
      .st0 {
        fill: #009fe3;
      }

      .st1 {
        fill: #fd0;
      }

      .st2 {
        fill: #fff;
      }

      .st3 {
        fill: #474747;
      }

      .st4 {
        fill: #c6c6c6;
      }
    </style>
  </defs>
  <rect class="st3" width="17" height="17"/>
  <path class="st1" d="M9.93,10.94l-1.65,2.34,1.12.06-1.22,2.02,3.05-2.62h-1.34l1.09-1.45-.28-.5h-.51l-.27.14h.01Z"/>
  <path class="st4" d="M3.89,5.03c-.54.17-1.04.46-1.44.86-.65.65-1.02,1.53-1.02,2.46,0,1.92,1.56,3.47,3.47,3.47h6.98c1.93,0,3.48-1.6,3.48-3.52s-1.56-3.52-3.48-3.52h-1.08c-.25-1.69-1.7-2.91-3.45-2.91s-3.28,1.41-3.46,3.17"/>
  <path class="st2" d="M4.2,7.7c-.34.1-.64.29-.89.53-.39.39-.63.92-.63,1.52,0,1.19.96,2.14,2.15,2.14h4.31c1.19,0,2.15-.99,2.15-2.18s-.96-2.18-2.15-2.18h-.67c-.16-1.05-1.05-1.8-2.13-1.8s-2.03.88-2.14,1.96"/>
  <path class="st0" d="M5.28,15.3c-.22.25-.57.3-.78.11s-.19-.53.04-.78c.15-.16.59-.33.88-.42.12-.04.23.05.2.18-.07.29-.19.75-.34.91M11.26,14.73c-.22.25-.57.3-.77.11s-.19-.53.04-.78c.15-.16.59-.33.88-.42.12-.04.23.05.2.18-.06.29-.19.75-.34.91M8.43,16.45c-.15.17-.39.21-.53.08-.14-.13-.13-.37.03-.54.1-.11.41-.23.6-.29.09-.03.16.04.14.12-.05.2-.13.52-.23.63M7.35,14.01c-.19.21-.49.26-.67.1s-.16-.46.03-.67c.13-.14.51-.28.75-.36.11-.04.19.04.17.15-.06.25-.16.64-.29.78"/>
</svg>